<?xml version="1.0" encoding="utf-8"?>
<!-- Generator: Adobe Illustrator 20.1.0, SVG Export Plug-In . SVG Version: 6.00 Build 0)  -->
<svg version="1.1" id="Ebene_1" xmlns="http://www.w3.org/2000/svg" xmlns:xlink="http://www.w3.org/1999/xlink" x="0px" y="0px"
	 viewBox="0 0 355.7 80.9" style="enable-background:new 0 0 355.7 80.9;" xml:space="preserve">
<g>
	<g>
		<path d="M292.5,80.9h63.2V61.4h-37.6V48.1h31.4V31.3h-31.4V18.7h37.6V0h-63.2V80.9z M245,80.9h24V0h-24V80.9z M197.9,41.5
			c0,11.3-3.2,19.8-16.4,19.8c-2.5,0-5.2,0-6.1-0.2V19.2c1-0.2,3.8-0.3,6.1-0.3c13.2,0,16.4,8.5,16.4,19.5V41.5z M149.6,80.9h37
			c19.3,0,38.3-9.6,38.3-40.1c0-30.9-16.2-40.8-34-40.8h-41.4V80.9z M71.4,32.9l29.3,48H126V0h-21.4v36.9L81.7,0H50.1v80.9h21.3
			V32.9z M0,80.9h24V0H0V80.9z"/>
	</g>
</g>
</svg>
