# Blender v2.78 (sub 0) OBJ File: 'fragMap.blend'
# www.blender.org
mtllib ground.mtl
o Ground1_Untitled.003
v 0.657884 0.246343 0.637576
v 0.657884 0.246333 14.387604
v 14.407887 0.246339 0.637547
v 14.407887 0.246332 14.387616
v 1.993311 0.246343 0.637573
v 1.993311 0.246332 14.387606
v 13.021554 0.246332 14.387615
v 13.021554 0.246339 0.637550
v 0.657884 0.246333 14.021912
v 14.407887 0.246332 14.021923
v 1.993311 0.246333 14.021914
v 13.021554 0.246332 14.021922
v 14.407887 0.246338 1.002575
v 0.657884 0.246343 1.002604
v 1.993311 0.246342 1.002601
v 13.021554 0.246339 1.002578
vt 0.9900 0.0258
vt 0.9900 0.0510
vt 0.8980 0.0510
vt 0.8980 0.0258
vt 0.7603 0.9747
vt 0.7603 0.9998
vt 0.0002 0.9998
vt 0.0002 0.9747
vt 0.9522 0.9491
vt 0.9522 0.9743
vt 0.8567 0.9742
vt 0.8567 0.9491
vt 0.8563 0.9491
vt 0.8563 0.9743
vt 0.7607 0.9743
vt 0.7607 0.9491
vt 0.7603 0.9491
vt 0.7603 0.9743
vt 0.0002 0.9743
vt 0.0002 0.9491
vt 0.9900 0.0002
vt 0.9900 0.0254
vt 0.8980 0.0254
vt 0.8980 0.0002
vt 0.0002 0.7607
vt 0.8976 0.7607
vt 0.8976 0.8563
vt 0.0002 0.8563
vt 0.0002 0.0002
vt 0.8976 0.0002
vt 0.8976 0.7603
vt 0.0002 0.7603
vt 0.0002 0.8566
vt 0.8976 0.8566
vt 0.8976 0.9487
vt 0.0002 0.9487
vn 0.0000 1.0000 0.0000
usemtl Material.004
s 1
f 15/1/1 5/2/1 1/3/1 14/4/1
f 16/5/1 8/6/1 5/7/1 15/8/1
f 13/9/1 3/10/1 8/11/1 16/12/1
f 4/13/1 10/14/1 12/15/1 7/16/1
f 7/17/1 12/18/1 11/19/1 6/20/1
f 6/21/1 11/22/1 9/23/1 2/24/1
f 10/25/1 13/26/1 16/27/1 12/28/1
f 12/29/1 16/30/1 15/31/1 11/32/1
f 11/33/1 15/34/1 14/35/1 9/36/1
